<svg width="17" height="17" viewBox="0 0 17 17" fill="none" xmlns="http://www.w3.org/2000/svg">
<g id="CSS">
<path id="Vector" d="M3.21657 2.38477L4.17829 13.1815L8.49363 14.3848L12.821 13.1771L13.7835 2.38477H3.21657ZM11.7856 4.85836L11.4654 8.45511L11.4664 8.47453L11.4651 8.5192V8.51881L11.2376 11.0337L11.2125 11.2572L8.50004 12.0074L8.49793 12.0093L5.79011 11.2549L5.60675 9.17561H6.9346L7.02882 10.2329L8.50042 10.6317L8.50004 10.6325V10.6323L9.97709 10.2278L10.1332 8.50609H7.04546L7.01896 8.21504L6.95861 7.53318L6.92695 7.16705H10.2505L10.3714 5.82801H5.3093L5.2828 5.53715L5.22255 4.8551L5.19079 4.48897H11.8172L11.7856 4.85836Z" fill="#3996DB"/>
</g>
</svg>
