<svg width="17" height="17" viewBox="0 0 17 17" fill="none" xmlns="http://www.w3.org/2000/svg">
<g id="FigmaLogo">
<path id="Vector" d="M12.5 6.38477C12.9198 6.06994 13.2298 5.63102 13.3863 5.13018C13.5427 4.62935 13.5376 4.09198 13.3717 3.5942C13.2058 3.09642 12.8874 2.66346 12.4618 2.35666C12.0361 2.04986 11.5247 1.88477 11 1.88477H6.5C5.9753 1.88477 5.46389 2.04986 5.03823 2.35666C4.61257 2.66346 4.29422 3.09642 4.1283 3.5942C3.96237 4.09198 3.95727 4.62935 4.11372 5.13018C4.27017 5.63102 4.58024 6.06994 5 6.38477C4.68218 6.62295 4.42568 6.93343 4.25175 7.29049C4.07781 7.64755 3.99145 8.04092 3.99982 8.438C4.00819 8.83508 4.11105 9.22446 4.29987 9.57387C4.4887 9.92329 4.75805 10.2227 5.08563 10.4473C4.71303 10.7305 4.4189 11.1042 4.23109 11.533C4.04328 11.9617 3.96801 12.4313 4.0124 12.8972C4.0568 13.3632 4.21939 13.8101 4.48478 14.1957C4.75017 14.5812 5.10957 14.8926 5.52897 15.1005C5.94836 15.3083 6.41386 15.4056 6.88139 15.3833C7.34892 15.3609 7.803 15.2196 8.20064 14.9727C8.59829 14.7258 8.92633 14.3815 9.15371 13.9723C9.38109 13.5632 9.50028 13.1028 9.5 12.6348V10.3848C10.0304 10.7826 10.6972 10.9534 11.3536 10.8596C12.0099 10.7659 12.6022 10.4152 13 9.88477C13.3978 9.35433 13.5686 8.68759 13.4749 8.03121C13.3811 7.37484 13.0304 6.78259 12.5 6.38477ZM12.5 4.38477C12.5 4.78259 12.342 5.16412 12.0607 5.44543C11.7794 5.72673 11.3978 5.88477 11 5.88477H9.5V2.88477H11C11.3978 2.88477 11.7794 3.0428 12.0607 3.32411C12.342 3.60541 12.5 3.98694 12.5 4.38477ZM5 4.38477C5 3.98694 5.15804 3.60541 5.43934 3.32411C5.72065 3.0428 6.10218 2.88477 6.5 2.88477H8.5V5.88477H6.5C6.10218 5.88477 5.72065 5.72673 5.43934 5.44543C5.15804 5.16412 5 4.78259 5 4.38477ZM6.5 9.88477C6.10218 9.88477 5.72065 9.72673 5.43934 9.44543C5.15804 9.16412 5 8.78259 5 8.38477C5 7.98694 5.15804 7.60541 5.43934 7.32411C5.72065 7.0428 6.10218 6.88477 6.5 6.88477H8.5V9.88477H6.5ZM8.5 12.6348C8.5 12.9809 8.39737 13.3192 8.20508 13.607C8.01278 13.8948 7.73947 14.1191 7.4197 14.2516C7.09993 14.384 6.74806 14.4187 6.4086 14.3511C6.06913 14.2836 5.75731 14.1169 5.51257 13.8722C5.26783 13.6275 5.10115 13.3156 5.03363 12.9762C4.96611 12.6367 5.00076 12.2848 5.13322 11.9651C5.26567 11.6453 5.48997 11.372 5.77776 11.1797C6.06554 10.9874 6.40389 10.8848 6.75 10.8848H8.5V12.6348ZM11 9.88477C10.7033 9.88477 10.4133 9.79679 10.1666 9.63197C9.91998 9.46715 9.72772 9.23288 9.61419 8.95879C9.50065 8.6847 9.47095 8.3831 9.52883 8.09213C9.5867 7.80116 9.72957 7.53388 9.93934 7.32411C10.1491 7.11433 10.4164 6.97147 10.7074 6.91359C10.9983 6.85571 11.2999 6.88541 11.574 6.99895C11.8481 7.11248 12.0824 7.30474 12.2472 7.55141C12.412 7.79808 12.5 8.08809 12.5 8.38477C12.5 8.78259 12.342 9.16412 12.0607 9.44543C11.7794 9.72673 11.3978 9.88477 11 9.88477Z" fill="#CAD5E2"/>
</g>
</svg>
