<svg width="17" height="17" viewBox="0 0 17 17" fill="none" xmlns="http://www.w3.org/2000/svg">
<g id="GitHub">
<g id="Vector">
<path fill-rule="evenodd" clip-rule="evenodd" d="M8.49995 2.04529C4.9106 2.04529 2 4.95524 2 8.54523C2 11.4172 3.86243 13.8535 6.44506 14.7131C6.7698 14.7734 6.88906 14.5721 6.88906 14.4004C6.88906 14.2454 6.88303 13.7334 6.88023 13.1903C5.07194 13.5835 4.69037 12.4234 4.69037 12.4234C4.39469 11.6721 3.96867 11.4723 3.96867 11.4723C3.37882 11.0689 4.01312 11.0773 4.01312 11.0773C4.66572 11.123 5.00951 11.7471 5.00951 11.7471C5.58924 12.7406 6.53009 12.4534 6.90101 12.2874C6.95935 11.8673 7.1278 11.5805 7.31369 11.4182C5.86996 11.254 4.35218 10.6966 4.35218 8.20597C4.35218 7.49632 4.6062 6.91648 5.022 6.46118C4.9544 6.29757 4.73192 5.63647 5.08486 4.74115C5.08486 4.74115 5.63058 4.56646 6.8727 5.40742C7.39129 5.26329 7.94745 5.19085 8.49995 5.18838C9.05212 5.19085 9.6086 5.26308 10.1282 5.4072C11.3688 4.56624 11.9138 4.74093 11.9138 4.74093C12.2677 5.63615 12.0452 6.29736 11.9777 6.46096C12.3944 6.91627 12.6466 7.4961 12.6466 8.20575C12.6466 10.7023 11.1261 11.2519 9.67867 11.4129C9.91192 11.6146 10.1197 12.0103 10.1197 12.6166C10.1197 13.4863 10.1121 14.1862 10.1121 14.4003C10.1121 14.5733 10.2292 14.776 10.5586 14.7122C13.1397 13.8517 15 11.4161 15 8.54523C14.9999 4.95545 12.0896 2.04529 8.49995 2.04529Z" fill="#C0C4CE"/>
<path d="M4.46186 11.3777C4.44754 11.41 4.39674 11.4197 4.35046 11.3976C4.3031 11.3765 4.27672 11.3325 4.29201 11.3001C4.306 11.2667 4.35691 11.2576 4.40395 11.2798C4.45131 11.3011 4.47833 11.3454 4.46186 11.3777ZM4.72514 11.6714C4.69425 11.7002 4.63365 11.6868 4.59253 11.6413C4.54991 11.5961 4.54194 11.5355 4.57348 11.5063C4.60555 11.4777 4.66432 11.4912 4.70695 11.5365C4.74936 11.5823 4.75764 11.6423 4.72514 11.6714ZM4.98153 12.0457C4.9417 12.0734 4.87647 12.0475 4.83622 11.9897C4.79639 11.9318 4.79639 11.8624 4.8373 11.8347C4.87744 11.8069 4.9417 11.832 4.9826 11.8893C5.02221 11.9479 5.02221 12.0175 4.98153 12.0457ZM5.33253 12.4074C5.29701 12.4467 5.22102 12.4362 5.16548 12.3827C5.10875 12.3303 5.09293 12.2557 5.12856 12.2165C5.16473 12.1771 5.24104 12.1881 5.2969 12.2413C5.35363 12.2936 5.37053 12.3684 5.33253 12.4074ZM5.81689 12.6174C5.80107 12.6684 5.72809 12.6915 5.65436 12.6698C5.58085 12.6475 5.53273 12.588 5.5478 12.5365C5.56287 12.4852 5.63639 12.4612 5.71055 12.4843C5.78406 12.5065 5.83218 12.5657 5.81689 12.6174ZM6.34894 12.6563C6.35077 12.7099 6.28834 12.7542 6.21117 12.7553C6.13335 12.7572 6.07038 12.7137 6.06962 12.6609C6.06962 12.6068 6.13076 12.563 6.20848 12.5615C6.28565 12.5601 6.34894 12.6032 6.34894 12.6563ZM6.84385 12.5721C6.85311 12.6243 6.7994 12.678 6.72265 12.6924C6.64731 12.7064 6.57734 12.6738 6.56766 12.6221C6.5584 12.5685 6.61308 12.5148 6.68843 12.5009C6.76528 12.4876 6.83417 12.5191 6.84385 12.5721Z" fill="#C0C4CE"/>
</g>
</g>
</svg>
