<svg width="17" height="17" viewBox="0 0 17 17" fill="none" xmlns="http://www.w3.org/2000/svg">
<g id="GitMerge">
<path id="Vector" d="M13.5 7.38472C13.068 7.38547 12.6479 7.52584 12.3022 7.7849C11.9565 8.04396 11.7038 8.40782 11.5819 8.82222L8.94375 8.44722C8.82347 8.43021 8.7135 8.37001 8.63437 8.27784L6.40187 5.66909C6.81956 5.45739 7.14973 5.10584 7.33483 4.6757C7.51993 4.24557 7.54823 3.76411 7.4148 3.31525C7.28137 2.86639 6.99467 2.47858 6.60466 2.2194C6.21464 1.96022 5.74605 1.84611 5.28055 1.89696C4.81504 1.94781 4.38213 2.16038 4.05727 2.49765C3.73241 2.83491 3.53619 3.27547 3.5028 3.74255C3.46942 4.20964 3.60099 4.67363 3.87458 5.05366C4.14818 5.4337 4.54645 5.70568 5 5.82222V10.9472C4.52867 11.0689 4.1179 11.3583 3.8447 11.7612C3.57149 12.1641 3.4546 12.6528 3.51594 13.1357C3.57728 13.6186 3.81263 14.0626 4.17788 14.3844C4.54313 14.7062 5.01321 14.8837 5.5 14.8837C5.98678 14.8837 6.45686 14.7062 6.82211 14.3844C7.18737 14.0626 7.42272 13.6186 7.48406 13.1357C7.54539 12.6528 7.42851 12.1641 7.1553 11.7612C6.88209 11.3583 6.47133 11.0689 6 10.9472V6.73659L7.875 8.92409C8.11197 9.20055 8.44141 9.38138 8.80187 9.43284L11.5519 9.82534C11.6349 10.1929 11.82 10.5295 12.086 10.7964C12.3519 11.0633 12.6878 11.2496 13.055 11.334C13.4223 11.4183 13.8058 11.3972 14.1616 11.2731C14.5173 11.149 14.8308 10.9269 15.0658 10.6324C15.3009 10.3379 15.448 9.98304 15.4902 9.60863C15.5323 9.23422 15.4679 8.85551 15.3043 8.51612C15.1406 8.17673 14.8845 7.89046 14.5652 7.6903C14.246 7.49013 13.8768 7.3842 13.5 7.38472ZM4.5 3.88472C4.5 3.68693 4.55865 3.49359 4.66853 3.32915C4.77841 3.1647 4.93459 3.03652 5.11731 2.96084C5.30004 2.88515 5.50111 2.86534 5.69509 2.90393C5.88907 2.94252 6.06725 3.03776 6.2071 3.17761C6.34696 3.31746 6.4422 3.49564 6.48078 3.68963C6.51937 3.88361 6.49957 4.08467 6.42388 4.2674C6.34819 4.45013 6.22002 4.6063 6.05557 4.71619C5.89112 4.82607 5.69778 4.88472 5.5 4.88472C5.23478 4.88472 4.98043 4.77936 4.79289 4.59182C4.60536 4.40429 4.5 4.14993 4.5 3.88472ZM6.5 12.8847C6.5 13.0825 6.44135 13.2758 6.33147 13.4403C6.22159 13.6047 6.06541 13.7329 5.88268 13.8086C5.69995 13.8843 5.49889 13.9041 5.30491 13.8655C5.11093 13.8269 4.93274 13.7317 4.79289 13.5918C4.65304 13.452 4.5578 13.2738 4.51921 13.0798C4.48063 12.8858 4.50043 12.6848 4.57612 12.502C4.65181 12.3193 4.77998 12.1631 4.94443 12.0532C5.10888 11.9434 5.30222 11.8847 5.5 11.8847C5.76521 11.8847 6.01957 11.9901 6.2071 12.1776C6.39464 12.3651 6.5 12.6195 6.5 12.8847ZM13.5 10.3847C13.3022 10.3847 13.1089 10.3261 12.9444 10.2162C12.78 10.1063 12.6518 9.95013 12.5761 9.7674C12.5004 9.58467 12.4806 9.38361 12.5192 9.18963C12.5578 8.99565 12.653 8.81746 12.7929 8.67761C12.9327 8.53776 13.1109 8.44252 13.3049 8.40393C13.4989 8.36535 13.7 8.38515 13.8827 8.46084C14.0654 8.53652 14.2216 8.6647 14.3315 8.82915C14.4413 8.9936 14.5 9.18693 14.5 9.38472C14.5 9.64993 14.3946 9.90429 14.2071 10.0918C14.0196 10.2794 13.7652 10.3847 13.5 10.3847Z" fill="#CAD5E2"/>
</g>
</svg>
