<svg width="17" height="17" viewBox="0 0 17 17" fill="none" xmlns="http://www.w3.org/2000/svg">
<g id=" JavaScript">
<path id="Vector" d="M2.00015 11.2582L3.50924 10.3598C3.80034 10.8677 4.06536 11.2973 4.70067 11.2973C5.30942 11.2973 5.69344 11.0641 5.69344 10.1513V3.95223H7.54673V10.1769C7.54673 12.0651 6.42167 12.9248 4.78032 12.9248C4.20005 12.9557 3.62388 12.8129 3.12769 12.5153C2.6315 12.2178 2.23809 11.7798 2.00015 11.2582ZM8.55373 11.0622L10.0628 10.2026C10.2306 10.5375 10.491 10.819 10.8142 11.0148C11.1373 11.2106 11.51 11.3127 11.8895 11.3095C12.6576 11.3095 13.1469 10.9316 13.1469 10.4106C13.1469 9.78559 12.6438 9.56403 11.7966 9.19787L11.3348 9.00476C9.99786 8.44502 9.1108 7.74163 9.1108 6.25693C9.1108 4.88932 10.17 3.84774 11.8246 3.84774C12.3607 3.80951 12.8964 3.92745 13.3649 4.18683C13.8333 4.44622 14.2138 4.83557 14.4587 5.30632L13.0155 6.21822C12.9208 5.98454 12.7562 5.7847 12.5434 5.64517C12.3306 5.50564 12.0798 5.43302 11.8241 5.43692C11.7127 5.42583 11.6001 5.43772 11.4935 5.47184C11.387 5.50595 11.2889 5.56154 11.2054 5.63506C11.1219 5.70858 11.055 5.7984 11.0088 5.89881C10.9626 5.99922 10.9381 6.108 10.9371 6.21822C10.9371 6.76536 11.2813 6.98645 12.0749 7.32509L12.5381 7.52053C14.1136 8.18475 15.0002 8.86203 15.0002 10.3854C15.0002 12.0264 13.6897 12.9252 11.9294 12.9252C10.2084 12.9252 9.09658 12.1173 8.55373 11.0622Z" fill="#EABD5F"/>
</g>
</svg>
