<svg width="17" height="17" viewBox="0 0 17 17" fill="none" xmlns="http://www.w3.org/2000/svg">
<g id=" Node.js">
<path id="Vector" d="M13.7971 4.76528L9.05626 2.01249C8.75727 1.84219 8.36798 1.84219 8.06663 2.01249L3.27512 4.76528C2.96657 4.94278 2.74821 5.27638 2.74821 5.63321V11.1315C2.74821 11.4883 2.97227 11.822 3.28082 12.0005L4.54675 12.7195C5.15182 13.0175 5.36565 13.0175 5.64099 13.0175C6.53687 13.0175 7.04861 12.4758 7.04861 11.5309V6.1027C7.04861 6.02605 7.00873 5.91198 6.93347 5.91198H6.32894C6.2524 5.91198 6.08102 6.02605 6.08102 6.1026V11.5308C6.08102 11.9496 5.70216 12.3665 4.9941 12.0124L3.68602 11.2585C3.64044 11.2337 3.60829 11.1839 3.60829 11.1315V5.63321C3.60829 5.58139 3.66796 5.52935 3.71387 5.5028L8.48989 2.75474C8.53451 2.72947 8.60009 2.72947 8.6446 2.75474L13.3624 5.50215C13.4075 5.52935 13.3916 5.57978 13.3916 5.63321V11.1315C13.3916 11.1839 13.4113 11.235 13.3667 11.2603L8.62697 14.01C8.58633 14.0344 8.53591 14.0344 8.4914 14.01L7.27578 13.2844C7.23912 13.2631 7.19558 13.2555 7.16042 13.2751C6.8222 13.4668 6.75984 13.4923 6.44258 13.6023C6.36453 13.6295 6.24938 13.6767 6.48666 13.8097L8.07759 14.7508C8.22948 14.8385 8.40179 14.8847 8.57719 14.8848C8.75372 14.8848 8.9266 14.839 9.07894 14.7508L13.797 12.0005C14.1056 11.8207 14.2518 11.4883 14.2518 11.1315V5.63321C14.2518 5.27638 14.1056 4.94364 13.7971 4.76528ZM10.0492 10.2602C8.78856 10.2602 8.51086 9.91243 8.41829 9.28554C8.40754 9.21802 8.35024 9.13728 8.28154 9.13728H7.6654C7.58917 9.13728 7.52789 9.22974 7.52789 9.30564C7.52789 10.1083 7.96428 11.0808 10.0493 11.0808C11.5587 11.0808 12.424 10.4944 12.424 9.45648C12.424 8.42739 11.7287 8.15733 10.265 7.9636C8.78544 7.76803 8.63514 7.66923 8.63514 7.32262C8.63514 7.03686 8.76243 6.65574 9.85796 6.65574C10.8368 6.65574 11.1976 6.86581 11.3461 7.5256C11.3588 7.58763 11.4155 7.63214 11.4794 7.63214H12.098C12.1361 7.63214 12.1724 7.61677 12.1991 7.58957C12.2249 7.56033 12.2386 7.52366 12.2351 7.48432C12.1393 6.34815 11.3845 5.81866 9.85785 5.81866C8.49989 5.81866 7.6898 6.39212 7.6898 7.35337C7.6898 8.396 8.49581 8.68413 9.79936 8.81303C11.3588 8.96591 11.4801 9.19383 11.4801 9.50056C11.4801 10.0333 11.0524 10.2602 10.0492 10.2602Z" fill="#82BC4F"/>
</g>
</svg>
