<svg width="17" height="17" viewBox="0 0 17 17" fill="none" xmlns="http://www.w3.org/2000/svg">
<g id=" React">
<path id="Vector" d="M8.874 13.0137C8.75845 12.9115 8.63789 12.809 8.52272 12.6954C8.43066 12.7805 8.34438 12.8603 8.25309 12.9396C7.11334 13.9222 5.93853 14.3312 5.24212 13.9335C4.56844 13.553 4.3562 12.4288 4.62583 11.0145C4.65459 10.8612 4.68913 10.7079 4.72945 10.5545C4.6085 10.5189 4.49333 10.4862 4.37816 10.4477C2.94413 9.95827 2.00005 9.16335 2.00005 8.36809C2.00005 7.60165 2.88096 6.85765 4.25683 6.38063C4.4109 6.32937 4.57345 6.27846 4.74062 6.23289C4.7021 6.08516 4.67167 5.94312 4.64278 5.80571C4.35466 4.37003 4.55611 3.22305 5.23557 2.83681C5.94354 2.42778 7.11834 2.86528 8.29816 3.89301C8.3671 3.95531 8.43644 4.02366 8.51116 4.09165C8.62055 3.98948 8.72417 3.88731 8.83356 3.79654C9.95059 2.83538 11.0615 2.43348 11.7409 2.81972C12.4489 3.217 12.6565 4.44372 12.3399 5.96021C12.3225 6.05704 12.3014 6.14781 12.2767 6.245C12.4208 6.28487 12.5644 6.33008 12.6969 6.37564C14.1017 6.85266 15.0115 7.59667 14.9999 8.38019C14.9999 9.1808 14.027 9.97037 12.5348 10.4588C12.4543 10.4816 12.3738 10.51 12.2929 10.5325C12.3275 10.646 12.3503 10.7596 12.3734 10.8731C12.6727 12.3441 12.4423 13.548 11.7459 13.9456C11.563 14.0474 11.3527 14.0992 11.1393 14.0952C10.501 14.0941 9.69059 13.7057 8.874 13.0137ZM10.0026 10.9294C9.67188 11.4048 9.30841 11.8601 8.91445 12.2925C9.02384 12.3993 9.13323 12.4971 9.24262 12.5879C10.1925 13.3942 11.0676 13.6954 11.4767 13.4626C11.6016 13.3631 11.7037 13.2416 11.7768 13.105C11.85 12.9685 11.8928 12.8198 11.9027 12.6677C11.9858 12.1041 11.9623 11.5315 11.8334 10.9753C11.816 10.8731 11.7948 10.771 11.7644 10.6631C11.1843 10.7886 10.5957 10.8776 10.0026 10.9294ZM5.1778 11.1113C4.94207 12.3216 5.11463 13.2237 5.52446 13.4569C5.66966 13.513 5.82642 13.5388 5.98365 13.5327C6.14087 13.5265 6.29471 13.4885 6.43426 13.4213C6.97715 13.2104 7.47156 12.9058 7.89102 12.5238C7.9773 12.4555 8.0578 12.3761 8.14447 12.2967C7.74183 11.8643 7.36877 11.409 7.02744 10.9337C6.43658 10.8881 5.84984 10.8048 5.2714 10.6845C5.23557 10.8329 5.20669 10.9746 5.1778 11.1113ZM8.52888 11.9062C8.78233 11.6278 9.03539 11.3213 9.28884 10.9807C9.03539 10.992 8.77077 10.9977 8.50577 10.9977C8.24076 10.9977 7.99348 10.992 7.74581 10.9807C8.00465 11.3153 8.26426 11.6278 8.52888 11.9062ZM7.31941 6.36354C7.10063 6.67574 6.88762 7.00431 6.68617 7.35175C6.48472 7.69243 6.30099 8.0388 6.13343 8.38411C6.30638 8.72478 6.4905 9.07116 6.69195 9.42358C6.8934 9.76426 7.1064 10.0999 7.32519 10.4171C7.70498 10.4399 8.10248 10.4527 8.50538 10.4527C8.90829 10.4527 9.31119 10.4413 9.69714 10.4132C9.90437 10.101 10.1174 9.76568 10.3192 9.41931C10.521 9.07294 10.7106 8.72087 10.8777 8.38019C10.7106 8.04521 10.5207 7.69884 10.3192 7.35211C10.1178 7.00538 9.90475 6.67574 9.69175 6.3639C9.30656 6.33542 8.90867 6.31833 8.50577 6.31833C8.10287 6.31833 7.70536 6.33506 7.31941 6.36354ZM5.41969 10.1626C5.81471 10.246 6.21453 10.3086 6.61722 10.3502C6.47894 10.1345 6.34105 9.9184 6.20854 9.69128C6.08182 9.46986 5.95509 9.24843 5.83993 9.02701C5.67314 9.4129 5.53486 9.79416 5.41969 10.1626ZM10.8026 9.68558C10.6701 9.9127 10.5376 10.1284 10.4055 10.3388C10.8142 10.2915 11.2198 10.2233 11.6204 10.1345C11.4953 9.75113 11.3492 9.3739 11.1828 9.00423C11.0618 9.23135 10.9351 9.45847 10.8026 9.68558ZM4.43517 6.90286C3.26075 7.31188 2.55278 7.90744 2.55278 8.37378C2.57517 8.52381 2.6294 8.66827 2.71236 8.79888C2.79531 8.92949 2.90536 9.04368 3.03619 9.13488C3.48553 9.4841 4.00082 9.7536 4.55611 9.92979C4.65973 9.96539 4.76912 9.99244 4.87851 10.0266C5.05536 9.46802 5.26876 8.91986 5.51753 8.38517C5.26828 7.85964 5.05674 7.31951 4.88429 6.76829C4.72893 6.80674 4.57922 6.85159 4.43517 6.90286ZM11.4994 8.37378C11.7549 8.90167 11.9736 9.44411 12.1542 9.99778C12.2293 9.975 12.304 9.95222 12.373 9.92943C13.6568 9.50937 14.453 8.86753 14.4572 8.36773C14.4572 7.9021 13.7204 7.29978 12.5171 6.89111C12.3961 6.85159 12.264 6.81172 12.1319 6.77185C11.9574 7.31751 11.7462 7.85253 11.4994 8.37378ZM10.7972 7.06768C10.9297 7.29479 11.0564 7.51657 11.1712 7.73799C11.3312 7.37612 11.4695 7.00641 11.5857 6.63053C11.1946 6.54271 10.7987 6.4745 10.3997 6.42619C10.538 6.63587 10.6705 6.84625 10.7972 7.06768ZM5.42547 6.6259C5.54102 6.98936 5.67892 7.35852 5.83993 7.73871C5.95548 7.51728 6.08182 7.29586 6.20854 7.07444C6.33527 6.85302 6.46739 6.63729 6.60567 6.4269C6.19121 6.4771 5.79987 6.54509 5.42547 6.6259ZM9.1964 4.21233C9.09856 4.29741 9.00073 4.38818 8.90251 4.47932C9.3023 4.90631 9.66974 5.3583 10.0022 5.83206C10.5881 5.88432 11.1692 5.97545 11.7409 6.10474C11.764 6.01966 11.7794 5.93422 11.7987 5.84914C12.0683 4.54304 11.9023 3.54343 11.4647 3.29389C11.3687 3.24407 11.2597 3.21945 11.1497 3.22269C10.6794 3.22056 9.95752 3.5591 9.1964 4.21126V4.21233ZM5.51175 3.30813C5.10307 3.54094 4.94168 4.4722 5.18358 5.69892C5.21246 5.82956 5.24135 5.95985 5.27563 6.0962C5.84816 5.97167 6.42901 5.88247 7.01434 5.82921C7.348 5.35486 7.7174 4.90282 8.11982 4.47647C8.05665 4.41382 7.98731 4.35721 7.92414 4.30026C7.12297 3.60004 6.3526 3.23052 5.84955 3.23052C5.73133 3.2268 5.61433 3.25368 5.51175 3.30813ZM9.2769 5.784C9.03947 5.4665 8.78333 5.16132 8.50962 4.86983C8.25078 5.14785 7.99155 5.45471 7.73926 5.784C7.99271 5.77261 8.24577 5.76691 8.505 5.76691C8.76423 5.76691 9.02345 5.77154 9.2769 5.784ZM7.35407 8.39656C7.34868 8.25061 7.3745 8.1051 7.43006 7.96839C7.48562 7.83167 7.56982 7.70643 7.67785 7.59984C7.78588 7.49326 7.9156 7.40742 8.05959 7.34726C8.20358 7.28709 8.359 7.25378 8.51694 7.24923C8.83562 7.25926 9.13699 7.38567 9.35498 7.60075C9.57297 7.81583 9.68978 8.10201 9.6798 8.39656C9.69009 8.69136 9.57336 8.97787 9.35526 9.19319C9.13716 9.40851 8.83551 9.53503 8.51655 9.54497C8.35853 9.54042 8.20303 9.50707 8.05899 9.44683C7.91494 9.3866 7.78519 9.30066 7.67718 9.19396C7.56917 9.08725 7.48502 8.96188 7.42957 8.82504C7.37413 8.6882 7.34847 8.54259 7.35407 8.39656Z" fill="#3996DB"/>
</g>
</svg>
